<svg xmlns="http://www.w3.org/2000/svg" width="512" height="512" fill="none" viewBox="0 0 512 512" id="art-portfolio"><path fill="#fff" d="M422.65 238.51C422.65 238.51 419.44 247.35 416.98 251.85 406.22 271.55 375.39 334.78 365.2 354.78 361.72 361.61 347.78 386.41 346.86 382.57 345.94 378.72 345.03 300.34 345.03 300.34 345.03 300.34 357.89 278.47 359.73 274.85 367.01 260.5 374.36 246.18 381.93 231.98L384.96 223.9 422.65 238.51zM428.05 225.75C444.74 222.63 458.71 209.63 464.95 193.84 471.2 178.05 470.26 159.98 464.48 144.02 458.7 128.06 448.36 114.05 436.37 102.04 438.69 113.36 435.99 125.61 429.13 134.91 426.43 131.31 423.73 127.71 421.03 124.1 408.64 136.62 398.48 151.35 391.17 167.38 387.88 174.6 385.13 182.25 384.97 190.19 384.81 198.12 387.82 206.14 393.72 211.45 397.34 214.72 413.28 228.5 428.05 225.75zM231.72 148.23C231.32 136.79 230.93 125.35 230.53 113.91 230.29 106.91 229.65 99.0499 224.32 94.4999 220.39 91.1499 214.88 90.5199 209.72 90.1399 160.49 86.5099 110.67 92.2499 63.5801 107.06 58.3701 136.76 58.3601 167.14 61.2201 197.15 62.2801 208.28 74.6701 231.97 74.6701 231.97L240.59 260C240.59 260 232.12 159.8 231.72 148.23z"></path><path fill="#fff" d="M414.67 246.74C419.39 247.72 425.1 247.95 428.17 244.24 430.25 241.74 430.41 238.04 429.29 234.98 428.17 231.92 425.96 229.4 423.62 227.13 417.83 221.5 410.97 216.97 403.52 213.85 394.12 209.91 373.17 211.28 378.74 226.59 383.1 238.54 403.73 244.48 414.67 246.74zM468.95 164.27C468.36 157.37 466.83 150.52 464.47 144.02 458.69 128.06 448.35 114.05 436.36 102.04 438.68 113.36 435.98 125.61 429.12 134.91 426.42 131.31 423.72 127.71 421.02 124.1 409.29 135.95 399.57 149.77 392.37 164.81 396.19 161.13 401.29 155.28 402.18 149.59 402.93 144.78 407.79 141.24 412.6 140.5 417.41 139.76 422.55 142.01 425.27 146.04 427.36 149.14 428 152.96 428.67 156.65 429.33 160.33 430.13 164.16 432.45 167.09 434.77 170.02 439.08 171.73 442.37 169.95 447.5 167.17 446.38 159.02 450.52 154.91 454.15 151.3 461.12 153.14 463.03 157.89 463.91 160.11 466.1 162.63 468.95 164.27zM204.39 142.84C200.84 137.39 195.7 131.79 189.2 132.07 178.4 132.52 173.29 148.39 162.49 148.92 156.62 149.21 151.69 144.68 147.97 140.13 145.14 136.66 142.53 132.96 139.1 130.08 135.67 127.2 131.2 125.18 126.78 125.86 122.95 126.44 119.7 128.91 116.68 131.34 98.7004 145.8 82.3404 162.16 67.0104 179.4 65.8004 180.76 63.2104 183.72 60.4404 187.86 60.6704 190.96 60.9304 194.06 61.2204 197.16 62.2804 208.29 74.6704 231.98 74.6704 231.98L240.59 260C240.59 260 234.99 193.79 232.68 162.8 226.26 159.79 220.29 157.26 217.48 156.82 211.06 155.81 207.94 148.29 204.39 142.84z"></path><path fill="#fff" d="M343.1 246.26C352.45 239.09 361.43 231.1 366.62 220.53C344.41 183.76 314.58 152.74 279.68 127.68C241.67 142.35 207.77 167.49 182.68 199.59C179.76 203.33 176.84 207.47 176.59 212.21C176.38 216.38 178.33 220.44 181.08 223.59C183.82 226.74 187.25 229.24 190.77 231.49C198.63 236.53 219.34 248.91 219.34 248.91C219.34 248.91 332.6 254.3 343.1 246.26Z"></path><path fill="#fff" d="M323.42 246C332.06 231.94 340.7 217.88 349.35 203.83C334.7 203.16 320.06 202.49 305.41 201.81L276.64 201.02C276.64 201.02 270.66 247.87 286.44 256C302.21 264.13 319.16 252.94 323.42 246Z"></path><path fill="#fff" d="M297.52 207.09C301.69 202.16 305.86 197.23 310.03 192.3C296.45 177.32 282.87 162.34 269.29 147.36C251.57 152.99 236.55 166.59 229.21 183.67C232.71 188.17 235.95 192.88 239.7 197.16C243.33 201.3 255.96 213.14 255.96 213.14L285.59 220.18C285.59 220.18 293.46 211.89 297.52 207.09Z"></path><path fill="#fff" d="M295.6 241.35C298.19 227.39 292.17 212.2 280.79 203.7C269.41 195.2 253.17 193.77 240.49 200.16C227.81 206.55 219.31 220.45 219.35 234.65C219.38 243.84 225.29 259.62 242.2 263.28C259.11 266.94 292.94 255.75 295.6 241.35Z"></path><path fill="#fff" d="M352.29 416.64C262.3 426.93 170.87 424.54 81.5398 409.56C70.7998 407.76 59.2798 405.35 51.9298 397.31C43.5298 388.12 43.0398 374.42 43.0198 361.97C42.9298 309.52 42.8498 257.07 42.7598 204.62C75.4398 192.86 111.02 191.5 145.13 198.02C151.82 199.3 151.65 200.81 152.19 203.5C154.62 215.57 162.51 226.6 173.74 231.64C181.5 235.12 190.17 235.85 198.65 236.53C241.87 240 285.1 243.47 328.32 246.94C334.47 247.43 341.02 248.08 345.84 251.92C352.21 256.99 353.62 265.96 354.46 274.06C359.35 320.99 360.83 368.27 358.89 415.41L352.29 416.64Z"></path><path fill="#fff" d="M217.27 269.81C211.49 265.51 203.32 267.97 196.7 270.83C178.46 278.73 161.04 288.54 144.84 300.06C135.94 306.39 127.24 313.4 121.33 322.59C115.42 331.77 112.62 343.52 116.27 353.81C119.09 361.76 125.46 368.11 132.82 372.24C140.18 376.37 148.49 378.49 156.8 379.96C197.74 387.21 241.2 379.19 276.85 357.8C285.57 352.57 294.69 345.05 294.92 334.89C295.11 326.7 289.07 319.37 281.76 315.67C272.15 310.8 260.87 310.92 250.37 310.22C243.97 309.79 235.74 310.86 229.68 308.45C214.21 302.29 229.67 279.04 217.27 269.81Z"></path><path fill="#fff" d="M177.51 297.75C174.65 300.37 172 304.08 172.98 307.83 173.95 311.54 178.02 313.51 181.78 314.28 187.96 315.54 194.52 314.86 200.31 312.35 204.22 310.66 207.87 308.05 210.07 304.4 214.64 296.84 210.17 285.87 200.67 285.79 193.32 285.72 182.63 293.05 177.51 297.75zM133.32 327.69C131.96 329.05 130.65 330.51 129.9 332.27 129.15 334.04 129.05 336.18 130.06 337.81 131.52 340.16 134.66 340.72 137.42 340.75 146.28 340.83 170.6 333.69 161.67 320.27 154.31 309.24 139.26 321.76 133.32 327.69zM160.89 347.25C159.5 348.48 158.17 349.84 157.33 351.5 156.49 353.16 156.18 355.16 156.86 356.89 158.16 360.16 162.23 361.2 165.75 361.46 169.83 361.75 174.06 361.55 177.76 359.81 181.46 358.07 184.52 354.54 184.75 350.46 184.96 346.59 180.88 341.03 177.12 339.83 171.79 338.14 164.51 344.04 160.89 347.25zM197.29 349.77C195.69 353.14 195.9 357.5 198.41 360.26 201.39 363.54 206.43 363.73 210.85 363.38 214.58 363.08 218.43 362.53 221.6 360.55 237.14 350.86 207.41 328.52 197.29 349.77zM240.54 329.52C236.01 331.41 232.01 335.41 231.59 340.3 231.3 343.62 232.72 346.97 235 349.4 237.28 351.84 240.36 353.42 243.57 354.33 249.37 355.97 255.94 355.38 260.93 352.02 265.93 348.65 269.01 342.32 267.8 336.42 265.23 323.79 249.49 325.78 240.54 329.52z"></path><path fill="#000" d="M367.15 355.91C373.6 343.27 380.01 330.61 386.41 317.95 394.21 302.52 401.99 287.09 409.71 271.62 412.8 265.42 415.9 259.22 418.93 252.98 419.46 251.89 419.23 250.55 418.12 249.9 417.13 249.32 415.57 249.61 415.04 250.71 408.84 263.47 402.44 276.14 396.07 288.81 388.3 304.26 380.51 319.68 372.69 335.1 369.56 341.28 366.42 347.46 363.27 353.63 361.95 356.22 365.83 358.5 367.15 355.91zM379.99 230.84C372.41 245.04 365.01 259.33 357.78 273.72 356.48 276.3 360.36 278.58 361.67 275.99 368.9 261.61 376.3 247.32 383.88 233.11 385.24 230.56 381.36 228.28 379.99 230.84z"></path><path fill="#000" d="M414.07 248.91C419.46 250 426.21 250.31 430 245.54C434.31 240.11 431.73 232.95 427.75 228.22C423.61 223.3 418.15 219.19 412.64 215.92C408.46 213.44 403.95 211.12 399.11 210.27C395.17 209.58 391.14 209.52 387.21 210.27C383.78 210.92 380.17 212.39 377.92 215.18C375.28 218.46 375.1 222.71 376.38 226.61C377.84 231.08 380.99 234.54 384.69 237.33C389.17 240.7 394.4 243.02 399.65 244.91C404.35 246.6 409.19 247.9 414.07 248.91C416.9 249.5 418.1 245.16 415.27 244.57C407.25 242.9 399.14 240.57 391.92 236.62C388.57 234.78 385.15 232.45 382.87 229.44C381.7 227.89 380.95 226.37 380.46 224.56C380.04 223 379.93 221.53 380.26 220.24C380.48 219.38 380.47 219.44 380.84 218.81C381.28 218.05 381.24 218.12 381.9 217.47C381.99 217.38 382.7 216.78 382.37 217.03C382.64 216.82 382.94 216.63 383.23 216.45C383.53 216.26 383.85 216.09 384.16 215.93C384.73 215.64 384.55 215.72 385.04 215.54C388.2 214.35 391.03 214.11 394.41 214.25C396.24 214.33 397.32 214.46 399.05 214.83C400.61 215.17 402.11 215.65 403.56 216.29C408.82 218.62 413.81 221.64 418.24 225.31C422.39 228.75 428.47 233.73 427.68 239.81C426.9 245.83 419.72 245.46 415.26 244.56C412.44 244 411.23 248.34 414.07 248.91Z"></path><path fill="#000" d="M395.31 209.87C385.43 201.63 386.11 187.61 389.9 176.5C392.04 170.25 394.99 164.24 398.17 158.46C401.23 152.89 404.65 147.52 408.39 142.39C412.7 136.48 417.48 130.91 422.62 125.7C421.44 125.55 420.26 125.4 419.09 125.24C421.79 128.84 424.49 132.44 427.19 136.05C428.25 137.47 430.02 137.5 431.08 136.05C438.29 126.17 440.93 113.41 438.54 101.45C437.29 102.18 436.03 102.91 434.78 103.64C448.99 117.9 461 135.12 465.33 155.07C469.46 174.15 466 195.11 452.29 209.63C445.62 216.69 437.04 221.76 427.46 223.58C426.27 223.81 425.59 225.24 425.89 226.35C426.23 227.6 427.46 228.15 428.66 227.92C447.36 224.37 462.26 209.24 468.2 191.53C475.22 170.6 470.49 147.51 459.88 128.68C454.01 118.27 446.39 108.9 437.98 100.45C436.31 98.78 433.8 100.52 434.22 102.64C436.38 113.47 433.7 124.88 427.21 133.78C428.51 133.78 429.8 133.78 431.1 133.78C428.4 130.18 425.7 126.58 423 122.97C422.15 121.84 420.58 121.39 419.47 122.51C409.81 132.3 401.44 143.4 394.73 155.42C391.33 161.51 388.23 167.85 385.89 174.42C383.58 180.9 382.15 187.91 382.99 194.8C383.83 201.71 386.72 208.5 392.16 213.03C393.09 213.81 394.43 213.94 395.34 213.03C396.11 212.25 396.25 210.65 395.31 209.87Z"></path><path fill="#000" d="M404.35 150.2C406.18 144.35 412.55 141.27 418.27 143.33 425.31 145.86 425.65 153.71 427.01 159.93 427.78 163.42 429.06 167.07 431.68 169.61 434.13 171.99 437.61 173.37 441.02 172.78 447.47 171.68 448.3 164.65 450.21 159.64 451.1 157.31 452.63 155.37 455.1 155.25 457.36 155.13 460.03 156.24 460.84 158.5 461.81 161.21 466.16 160.04 465.18 157.3 463.13 151.56 455.44 148.72 450.25 152.24 447.61 154.04 446.3 156.97 445.36 159.92 444.59 162.34 444.12 165.39 442.27 167.24 440.25 169.25 437.06 168.41 435.12 166.66 432.36 164.17 431.58 160.17 430.94 156.67 430.23 152.82 429.61 148.84 427.54 145.43 425.63 142.29 422.6 140 419.12 138.86 411.11 136.22 402.49 141.07 400 148.99 399.14 151.77 403.49 152.96 404.35 150.2zM352.29 414.39C319.22 418.16 285.96 420.24 252.67 420.6 219.39 420.96 186.09 419.61 152.94 416.56 136.37 415.04 119.83 413.09 103.36 410.7 95.33 409.54 87.3 408.33 79.32 406.9 72.99 405.76 66.5 404.36 60.79 401.28 55.16 398.25 50.85 393.54 48.53 387.55 46.15 381.42 45.54 374.79 45.34 368.26 45.1 360.2 45.24 352.12 45.23 344.06 45.22 335.63 45.2 327.19 45.19 318.76 45.13 284.82 45.08 250.88 45.02 216.94 45.01 212.83 45.01 208.71 45 204.6 44.45 205.32 43.9 206.05 43.35 206.77 68.47 197.78 95.35 195.24 121.85 197.31 129.45 197.9 137.01 198.88 144.52 200.17 147.35 200.66 148.57 196.32 145.72 195.83 118.83 191.19 91.13 190.54 64.34 196.17 56.81 197.75 49.4 199.84 42.15 202.44 41.21 202.78 40.5 203.57 40.5 204.61 40.56 239.06 40.61 273.52 40.67 307.97 40.7 325.15 40.73 342.32 40.76 359.5 40.78 372.81 40.65 387.95 50.01 398.55 59.27 409.03 74.53 410.72 87.5 412.81 104.23 415.5 121.03 417.75 137.88 419.56 171.37 423.17 205.06 425.03 238.74 425.15 272.53 425.27 306.32 423.62 339.94 420.22 344.05 419.8 348.17 419.36 352.27 418.89 353.49 418.75 354.51 417.95 354.52 416.64 354.55 415.53 353.49 414.26 352.29 414.39z"></path><path fill="#000" d="M150.02 204.09C151.66 214.05 157.36 223.1 165.35 229.22C174.57 236.28 186.07 237.75 197.3 238.67C223.58 240.82 249.86 242.89 276.15 245C289.4 246.06 302.65 247.13 315.9 248.19C321.97 248.68 328.17 248.86 334.19 249.8C339.03 250.56 343.8 252.15 346.91 256.17C349.89 260.03 350.99 265.07 351.7 269.79C352.6 275.76 353.02 281.83 353.56 287.84C354.73 300.82 355.63 313.82 356.28 326.84C357.58 353.12 357.83 379.45 357 405.75C356.9 408.97 356.78 412.18 356.65 415.39C356.53 418.29 361.03 418.28 361.15 415.39C362.23 389.02 362.25 362.6 361.2 336.23C360.68 323.13 359.89 310.03 358.84 296.96C358.32 290.46 357.73 283.97 357.08 277.49C356.54 272.17 356.11 266.73 354.52 261.6C353 256.69 350.33 252.19 346.02 249.26C341.44 246.14 335.74 245.34 330.34 244.86C317.34 243.68 304.32 242.76 291.31 241.72C264.9 239.6 238.48 237.48 212.07 235.36C205.66 234.85 199.24 234.41 192.84 233.78C186.99 233.2 181.05 232.27 175.58 230C166.82 226.36 159.65 218.87 156.28 210.01C155.4 207.71 154.77 205.33 154.37 202.9C154.17 201.7 152.69 201.03 151.6 201.33C150.32 201.68 149.83 202.89 150.02 204.09Z"></path><path fill="#000" d="M191.92 229.55C187.61 226.61 183.08 223.53 180.51 218.85C179.33 216.7 178.65 214.26 178.89 211.8C179.13 209.28 180.32 206.95 181.66 204.85C184.36 200.62 187.76 196.76 191.03 192.97C194.36 189.1 197.83 185.34 201.42 181.71C215.7 167.25 231.91 154.75 249.52 144.6C259.39 138.91 269.67 133.97 280.29 129.86C279.71 129.78 279.13 129.71 278.56 129.63C291.95 139.26 304.65 149.83 316.48 161.32C328.31 172.81 339.27 185.2 349.1 198.45C354.66 205.94 359.86 213.7 364.69 221.68C364.69 220.92 364.69 220.17 364.69 219.41C359.61 229.67 351.74 238.35 341.97 244.34C339.5 245.85 341.76 249.74 344.24 248.23C353.36 242.64 361.08 234.82 366.48 225.58C367.09 224.54 367.66 223.48 368.21 222.41C368.61 221.63 369.05 220.87 368.8 219.96C368.59 219.2 367.99 218.46 367.59 217.8C366.16 215.46 364.69 213.15 363.19 210.85C360.21 206.27 357.09 201.78 353.86 197.37C340.81 179.59 325.85 163.26 309.38 148.59C301.12 141.23 292.49 134.29 283.56 127.75C282.55 127.01 281.25 125.67 279.99 125.5C278.7 125.32 277.05 126.34 275.86 126.82C273.34 127.84 270.84 128.9 268.36 130C263.44 132.18 258.6 134.55 253.85 137.08C234.93 147.16 217.42 159.93 202 174.82C194.27 182.29 187.05 190.31 180.48 198.82C177.14 203.15 173.9 208.19 174.37 213.91C174.86 219.83 178.46 224.8 182.89 228.52C185.03 230.31 187.33 231.9 189.63 233.48C192.05 235.07 194.3 231.17 191.92 229.55Z"></path><path fill="#000" d="M221.6 234.65C221.61 219.07 232.26 204.25 247.32 199.88C255.06 197.63 263.43 198.04 270.97 200.86C278.31 203.6 284.47 208.89 288.5 215.58C292.99 223.05 294.95 232.12 293.43 240.74C293.22 241.94 293.75 243.16 295 243.51C296.09 243.81 297.56 243.14 297.77 241.94C300.85 224.46 291.93 205.7 275.7 198.01C267.56 194.15 258.31 193.02 249.47 194.74C240.83 196.42 232.94 201.12 227.24 207.8C220.87 215.26 217.11 224.81 217.1 234.65C217.1 237.55 221.6 237.55 221.6 234.65Z"></path><path fill="#000" d="M241.29 195.57C237.79 191.07 234.3 186.58 230.8 182.08C230.92 182.99 231.03 183.9 231.15 184.81C236.77 171.86 246.66 161.02 259.03 154.21C262.5 152.3 266.12 150.74 269.89 149.53C269.16 149.34 268.43 149.14 267.7 148.95C281.28 163.93 294.86 178.91 308.44 193.89C308.44 192.83 308.44 191.77 308.44 190.71C304.27 195.64 300.1 200.57 295.93 205.5C295.15 206.43 295.02 207.77 295.93 208.68C296.73 209.48 298.32 209.61 299.11 208.68C303.28 203.75 307.45 198.82 311.62 193.89C312.44 192.93 312.49 191.67 311.62 190.71C298.04 175.73 284.46 160.75 270.88 145.77C270.37 145.2 269.42 144.96 268.69 145.19C254.39 149.78 241.91 159.18 233.37 171.53C230.98 174.99 228.93 178.68 227.26 182.54C226.81 183.58 226.93 184.39 227.61 185.27C231.11 189.77 234.6 194.26 238.1 198.76C238.85 199.72 240.5 199.54 241.28 198.76C242.24 197.8 242.04 196.53 241.29 195.57Z"></path><path fill="#000" d="M305.41 204.06C320.06 204.73 334.7 205.4 349.35 206.08 348.7 204.95 348.05 203.82 347.41 202.69 338.77 216.75 330.13 230.81 321.48 244.86 319.96 247.33 323.85 249.6 325.37 247.13 334.01 233.07 342.65 219.01 351.3 204.96 352.23 203.44 351.01 201.65 349.36 201.57 334.71 200.9 320.07 200.23 305.42 199.55 302.52 199.42 302.52 203.92 305.41 204.06zM63.4702 197.16C60.6702 173.98 60.4902 150.5 62.9802 127.29 63.6802 120.72 64.6202 114.18 65.7502 107.67 65.2302 108.19 64.7002 108.72 64.1802 109.24 91.9002 100.54 120.57 94.93 149.53 92.6 163.87 91.45 178.28 91.08 192.66 91.51 199.64 91.72 206.79 91.82 213.72 92.78 216.59 93.18 219.48 93.89 221.92 95.5 224.08 96.93 225.59 99.2 226.46 101.61 227.52 104.54 227.92 107.64 228.12 110.74 228.37 114.61 228.43 118.5 228.56 122.37 228.86 130.99 229.16 139.61 229.46 148.23 229.56 151.12 234.06 151.13 233.96 148.23 233.68 140.27 233.41 132.32 233.13 124.36 232.9 117.61 233.13 110.61 231.78 103.96 230.53 97.82 227.18 92.56 221.25 90.09 218.22 88.83 214.96 88.36 211.71 88.05 208.21 87.72 204.7 87.53 201.19 87.35 171.3 85.8 141.26 87.71 111.79 92.94 95.2802 95.87 78.9702 99.86 62.9802 104.88 62.2802 105.1 61.5402 105.68 61.4102 106.45 57.3302 129.81 55.8802 153.61 57.2002 177.29 57.5702 183.93 58.1602 190.55 58.9602 197.15 59.1102 198.36 59.8902 199.4 61.2102 199.4 62.3302 199.41 63.6202 198.38 63.4702 197.16z"></path><path fill="#000" d="M68.6002 180.99C78.4702 169.53 89.0202 158.65 100.18 148.44 105.71 143.39 111.38 138.5 117.2 133.78 119.68 131.77 122.28 129.51 125.37 128.49 128.62 127.42 131.93 128.15 134.84 129.82 140.91 133.29 144.24 139.83 149.03 144.68 153.4 149.11 159.4 152.5 165.76 150.61 170.41 149.23 173.94 145.63 177.23 142.25 180.23 139.17 183.45 135.54 187.64 134.53 194 133 199.26 139.1 202.45 143.97 206.33 149.89 209.99 156.26 216.89 158.99 218.02 159.44 219.36 158.5 219.66 157.42 220.01 156.14 219.22 155.1 218.09 154.65 212.51 152.44 209.44 146.43 206.34 141.7 202.93 136.49 198.17 130.93 191.64 129.97 186.25 129.18 181.64 131.85 177.79 135.37 174.34 138.52 171.4 142.48 167.43 144.94 165.51 146.13 163.56 146.78 161.33 146.66 158.3 146.49 155.55 144.62 153.38 142.63 148.12 137.82 144.77 131.3 138.91 127.09 136 125 132.47 123.57 128.86 123.47 125.24 123.37 121.83 124.84 118.89 126.85 115.82 128.95 112.98 131.42 110.13 133.8 107.2 136.25 104.3 138.74 101.44 141.27 88.6302 152.62 76.6002 164.84 65.4302 177.81 63.5302 179.99 66.7002 183.19 68.6002 180.99zM218.41 267.87C211.61 262.99 202.69 265.83 195.75 268.81 187.4 272.39 179.24 276.42 171.28 280.8 163.24 285.23 155.42 290.04 147.85 295.23 140.75 300.09 133.69 305.19 127.62 311.31 121.66 317.32 116.75 324.41 114.2 332.54 111.7 340.53 111.7 349.19 115.1 356.9 122.18 372.93 140.22 379.3 156.2 382.13 173 385.11 190.21 385.6 207.15 383.62 224.17 381.63 240.82 377.27 256.6 370.59 264.41 367.28 272.06 363.45 279.25 358.96 285.52 355.05 291.98 350.03 295.15 343.16 298.45 336.01 297.38 328.1 292.63 321.86 287.58 315.23 279.94 311.63 271.91 310 267.58 309.12 263.17 308.73 258.77 308.45 254.68 308.19 250.58 307.87 246.49 307.85 240.23 307.82 231.26 308.86 226.79 303.81 226.64 303.64 226.32 303.2 226.06 302.76 225.74 302.22 225.57 301.84 225.44 301.52 225.05 300.48 224.74 299.13 224.62 298.2 224.31 295.84 224.42 292.97 224.55 290.43 224.81 285.16 225.4 279.43 223.4 274.4 222.35 271.72 220.69 269.6 218.41 267.87 217.44 267.13 215.89 267.72 215.33 268.68 214.65 269.84 215.17 271.02 216.14 271.76 217.82 273.04 218.94 274.91 219.53 276.88 220.25 279.27 220.35 281.47 220.33 284.06 220.29 289.28 219.52 294.51 220.36 299.71 221.26 305.27 224.83 309.29 230.17 311.01 233.89 312.21 237.92 312.34 241.79 312.36 245.67 312.38 249.51 312.44 253.38 312.65 261.6 313.11 270.01 313.38 277.79 316.35 284.2 318.8 290.23 323.78 292.13 330.6 294.05 337.48 290.5 343.83 285.65 348.51 280.23 353.74 273.37 357.44 266.74 360.89 252.27 368.41 236.72 373.79 220.73 376.98 204.75 380.17 188.32 381.09 172.08 379.72 163.8 379.02 155.46 377.81 147.43 375.63 139.8 373.56 132.32 370.34 126.46 364.92 121.03 359.9 117.34 353.27 116.92 345.8 116.49 337.99 119.07 330.27 123.26 323.74 127.61 316.98 133.61 311.42 139.9 306.5 146.63 301.24 153.79 296.49 161.05 292 168.53 287.37 176.22 283.09 184.09 279.17 187.99 277.23 191.94 275.38 195.92 273.62 199.4 272.08 202.95 270.64 206.71 269.99 210.02 269.42 213.34 269.78 216.11 271.77 217.1 272.48 218.62 271.94 219.19 270.96 219.88 269.81 219.4 268.58 218.41 267.87z"></path><path fill="#000" d="M175.92 296.16C172.68 299.18 169.77 303.4 170.72 308.04 171.55 312.07 175.19 314.56 178.85 315.82 187.32 318.73 197.96 317.05 205.39 312.19 208.82 309.95 211.76 306.88 213.22 303.01 214.36 299.98 214.42 296.48 213.47 293.4 211.37 286.53 204.9 282.65 197.87 283.81 193.65 284.5 189.62 286.53 185.99 288.71 182.41 290.85 179 293.35 175.92 296.16 173.77 298.11 176.96 301.29 179.1 299.34 183.61 295.23 189.04 291.47 194.78 289.32 197.22 288.41 199.93 287.65 202.54 288.24 204.83 288.76 206.75 290.14 207.98 292.09 210.85 296.63 209.79 302.18 205.98 305.98 200.72 311.23 192.49 313.15 185.26 312.53 182.1 312.26 177.93 311.49 175.88 308.77 173.4 305.48 176.73 301.55 179.1 299.34 181.22 297.36 178.03 294.18 175.92 296.16zM131.73 326.1C128.35 329.51 125.07 334.88 128.48 339.46 130.86 342.65 135.27 343.2 138.98 342.95 144.79 342.56 150.69 340.89 155.9 338.29 160.78 335.85 166.21 331.52 165.85 325.46 165.65 322.14 163.91 318.78 161.46 316.56 158.67 314.04 155.12 313.29 151.47 313.86 147.49 314.48 143.75 316.55 140.47 318.81 137.33 320.95 134.42 323.43 131.73 326.1 129.67 328.14 132.86 331.33 134.91 329.28 138.9 325.31 143.53 321.38 148.8 319.26 151.3 318.25 153.85 317.7 156.26 318.53 157.23 318.87 158.3 319.66 159.1 320.58 159.93 321.54 160.63 322.79 160.96 323.77 161.05 324.03 161.12 324.28 161.19 324.55 161.21 324.64 161.36 325.46 161.3 325.03 161.37 325.58 161.37 326.14 161.31 326.68 161.35 326.25 161.28 326.83 161.24 326.97 161.19 327.2 161.13 327.42 161.06 327.64 161.03 327.74 160.73 328.44 160.92 328.04 160.81 328.29 160.68 328.53 160.55 328.76 159.97 329.78 159.63 330.15 158.68 331.04 157.75 331.91 157.17 332.33 156.04 333.04 151.8 335.69 146.91 337.22 141.9 338.08 141.61 338.13 141.31 338.18 141.02 338.22 140.88 338.24 140.73 338.26 140.59 338.28 140.92 338.24 140.62 338.27 140.46 338.29 139.91 338.35 139.36 338.41 138.8 338.44 137.37 338.52 135.91 338.51 134.52 338.16 132.75 337.71 131.43 336.67 131.58 334.69 131.75 332.49 133.44 330.75 134.91 329.26 136.95 327.22 133.77 324.04 131.73 326.1zM159.29 345.66C156.68 348 154.37 350.92 154.23 354.57 154.11 357.74 155.96 360.54 158.73 361.97 161.42 363.37 164.5 363.71 167.49 363.8 170.87 363.9 174.37 363.58 177.54 362.33 183.1 360.13 188.11 354.47 186.74 348.12 185.64 343.02 180.82 337.49 175.36 337.28 172.21 337.16 169.08 338.6 166.45 340.2 163.89 341.77 161.54 343.67 159.29 345.66 157.12 347.58 160.31 350.75 162.47 348.84 165.46 346.19 168.85 343.38 172.72 342.19 174.37 341.69 175.93 341.56 177.45 342.46 179.19 343.49 180.55 345.17 181.5 346.93 182.43 348.64 182.73 350.27 182.13 352.14 181.48 354.15 179.94 355.87 178.19 357 174.13 359.62 168.27 359.89 163.64 358.94 161.83 358.57 159.55 357.87 158.88 355.93 157.92 353.13 160.61 350.51 162.46 348.85 164.64 346.9 161.45 343.73 159.29 345.66zM195.35 348.63C193.53 352.62 193.45 357.47 196.2 361.08 198.86 364.57 203.26 365.67 207.46 365.75 214.22 365.87 224.04 364.65 227.32 357.68 229.44 353.18 227.54 348.35 224.32 344.93 220.86 341.25 215.82 338.9 210.77 338.66 203.9 338.34 198.27 342.61 195.35 348.63 194.82 349.72 195.05 351.06 196.16 351.71 197.15 352.29 198.71 352 199.24 350.9 200.3 348.71 201.85 346.51 203.53 345.29 203.98 344.96 204.46 344.66 204.96 344.39 205.15 344.29 205.35 344.19 205.55 344.09 205.68 344.03 205.81 343.97 205.95 343.91 205.66 344.03 205.99 343.9 206.11 343.86 206.58 343.7 207.05 343.55 207.54 343.43 207.78 343.37 208.02 343.32 208.26 343.28 208.4 343.25 208.54 343.23 208.67 343.21 208.44 343.24 208.5 343.23 208.7 343.21 210.98 343.01 212.27 343.17 214.41 343.85 215.57 344.22 215.83 344.33 216.95 344.93 217.83 345.4 218.67 345.93 219.46 346.54 219.12 346.28 219.72 346.76 219.79 346.82 219.97 346.97 220.14 347.13 220.31 347.28 220.67 347.61 221.02 347.96 221.35 348.32 221.5 348.49 221.64 348.66 221.79 348.83 222.14 349.24 221.74 348.73 221.96 349.04 222.25 349.44 222.52 349.84 222.76 350.27 222.97 350.63 223.15 351 223.32 351.38 223.14 350.97 223.31 351.38 223.37 351.57 223.44 351.79 223.51 352 223.57 352.22 223.62 352.41 223.66 352.6 223.7 352.79 223.72 352.9 223.74 353.01 223.76 353.12 223.76 353.11 223.71 352.67 223.73 352.93 223.75 353.34 223.76 353.74 223.75 354.15 223.75 354.26 223.73 354.37 223.72 354.47 223.73 354.4 223.82 353.96 223.73 354.36 223.68 354.55 223.65 354.73 223.6 354.92 223.55 355.11 223.48 355.29 223.42 355.47 223.4 355.52 223.29 355.78 223.41 355.51 223.54 355.2 223.34 355.65 223.3 355.71 223.09 356.07 222.89 356.43 222.63 356.77 222.92 356.39 222.52 356.89 222.44 356.97 222.23 357.19 222.02 357.4 221.8 357.61 221.33 358.04 221.45 357.95 220.88 358.33 220.15 358.82 219.36 359.26 218.54 359.59 216.7 360.33 214.7 360.72 212.74 360.94 209.16 361.34 204.81 361.81 201.55 359.9 198.45 358.08 197.83 354.01 199.25 350.89 199.75 349.78 199.57 348.47 198.44 347.81 197.46 347.26 195.86 347.52 195.35 348.63zM239.4 327.58C235.8 329.13 232.44 331.88 230.7 335.45 228.7 339.54 228.97 344.2 231.26 348.13 235.83 355.98 246.5 358.69 254.93 356.93 263.25 355.19 270.13 348.04 270.31 339.33 270.45 332.53 266.18 326.78 259.6 325.1 253.18 323.46 245.96 324.86 239.94 327.35 238.82 327.81 238.02 328.84 238.37 330.12 238.66 331.18 240.01 332.16 241.14 331.69 245.68 329.82 250.5 328.69 255.37 328.98 259.73 329.24 263.85 331.07 265.26 335.54 267.27 341.89 263.46 348.47 257.73 351.28 251.6 354.3 242.77 353.36 237.6 348.79 234.74 346.26 233.01 342.43 234.23 338.65 235.34 335.21 238.49 332.84 241.68 331.47 242.8 330.99 243.05 329.35 242.49 328.39 241.81 327.23 240.52 327.09 239.4 327.58z"></path></svg>