<svg xmlns="http://www.w3.org/2000/svg" width="46" height="46" viewBox="0 0 128 128" id="efficiency"><path d="M94.19 77.87a24.41 24.41 0 0 0-2.86.17 24.06 24.06 0 1 0 2.86-.17Zm0 40.61a16.55 16.55 0 1 1 16.55-16.55 16.56 16.56 0 0 1-16.55 16.55Z"></path><path d="M101.47 100.4h-5.75v-9.94a1.53 1.53 0 0 0-3.06 0v11.48a1.54 1.54 0 0 0 1.53 1.53h7.28a1.54 1.54 0 0 0 0-3.07zm-34.41 1.53a27.19 27.19 0 0 1 22.43-26.71 28.09 28.09 0 0 1 3.06-.37v-3.5A1.54 1.54 0 0 0 91 69.82H79.74a31.14 31.14 0 0 0-2-5l8-8a1.54 1.54 0 0 0 0-2.16L75.21 44.24a1.52 1.52 0 0 0-2.16 0l-8 8A28 28 0 0 0 62 50.8V21.09a1.52 1.52 0 0 1 1.53-1.53h5.25L58.6 2 48.48 19.56h5.26a1.53 1.53 0 0 1 1.53 1.53v16.24H43.76a1.54 1.54 0 0 0-1.53 1.53v11.29a29.06 29.06 0 0 0-5 2.05l-8-8a1.53 1.53 0 0 0-2.17 0L16.65 54.68a1.52 1.52 0 0 0-.46 1.08 1.56 1.56 0 0 0 .46 1.09l8 8a29.54 29.54 0 0 0-2.07 5h-11.3a1.52 1.52 0 0 0-1.53 1.53v14.74a1.52 1.52 0 0 0 1.53 1.53h11.28a31.44 31.44 0 0 0 2.07 5l-8 8a1.55 1.55 0 0 0-.46 1.09 1.48 1.48 0 0 0 .46 1.07l10.46 10.47a1.51 1.51 0 0 0 2.17 0l8-8a28.46 28.46 0 0 0 5 2.08v11.27a1.54 1.54 0 0 0 1.53 1.53h14.74a1.54 1.54 0 0 0 1.54-1.53v-11.31a29.54 29.54 0 0 0 5-2.08l2.67 2.7a26.41 26.41 0 0 1-.66-5c-.02-.33-.02-.67-.02-1.01zm2-23.2a18 18 0 1 1-18-18 18 18 0 0 1 18.05 18z"></path><path d="M51.14 67.66a11.07 11.07 0 1 0 11.07 11.07 11.09 11.09 0 0 0-11.07-11.07zm0 19.07a8 8 0 1 1 8-8 8 8 0 0 1-8 8zm47-36.14V75.1a26.49 26.49 0 0 1 6.67 1.9V50.59a1.53 1.53 0 0 1 1.53-1.53h5.27L101.46 31.5 91.34 49.06h5.27a1.54 1.54 0 0 1 1.53 1.53z"></path></svg>